<svg xmlns="http://www.w3.org/2000/svg" width="231" height="231">
    <defs>
        <radialGradient id="radial-gradient" cx=".066" cy="1.196" r="1.475" gradientTransform="matrix(1.431 0 0 1 -.216 0)" gradientUnits="objectBoundingBox">
            <stop offset="0" stop-color="#095cd4"/>
            <stop offset=".649" stop-color="#7400d4"/>
        </radialGradient>
        <radialGradient id="radial-gradient-2" cx=".099" cy="1.178" r="1.786" gradientTransform="matrix(.795 0 0 1 .103 0)" gradientUnits="objectBoundingBox">
            <stop offset="0" stop-color="#2d87ff"/>
            <stop offset=".649" stop-color="#8c00ff"/>
        </radialGradient>
    </defs>
    <g id="ic_logo" transform="translate(-1224.786 -266.414)">
        <path id="사각형_4597" transform="translate(1224.786 266.414)" style="fill:none" d="M0 0h231v231H0z"/>
        <g id="그룹_3693" transform="translate(1285.786 436.612)">
            <path id="패스_7538" class="cls-2" d="M1288.222 604.4h-2.436v-2.51h2.436v-1.673a13.119 13.119 0 0 1 .172-2.227 4.354 4.354 0 0 1 .652-1.71 3.073 3.073 0 0 1 1.341-1.095 5.579 5.579 0 0 1 2.239-.381 9.535 9.535 0 0 1 1.87.173l-.2 2.509c-.214-.049-.418-.09-.615-.123a3.754 3.754 0 0 0-.615-.049 2.1 2.1 0 0 0-.985.2 1.508 1.508 0 0 0-.578.529 1.929 1.929 0 0 0-.271.775 6.819 6.819 0 0 0-.061.935v2.141h2.731v2.51h-2.731v9.3h-2.953z" transform="translate(-1285.786 -594.805)"/>
            <path id="패스_7539" class="cls-2" d="M1307.674 615.96a6.235 6.235 0 0 1 .505-2.547 5.945 5.945 0 0 1 1.365-1.956 6.019 6.019 0 0 1 2.043-1.255 7.334 7.334 0 0 1 5.019 0 5.868 5.868 0 0 1 3.408 3.211 6.681 6.681 0 0 1 0 5.093 5.868 5.868 0 0 1-3.408 3.211 7.327 7.327 0 0 1-5.019 0 6.018 6.018 0 0 1-2.043-1.255 5.949 5.949 0 0 1-1.365-1.956 6.236 6.236 0 0 1-.505-2.546zm2.953 0a3.828 3.828 0 0 0 .234 1.328 3.326 3.326 0 0 0 .689 1.132 3.489 3.489 0 0 0 5.093 0 3.336 3.336 0 0 0 .689-1.132 3.89 3.89 0 0 0 0-2.657 3.34 3.34 0 0 0-.689-1.132 3.49 3.49 0 0 0-5.093 0 3.329 3.329 0 0 0-.689 1.132 3.835 3.835 0 0 0-.234 1.329z" transform="translate(-1297.734 -602.969)"/>
            <path id="패스_7540" class="cls-2" d="M1343.109 610.055h2.953v1.87h.049a3.708 3.708 0 0 1 1.4-1.6 3.878 3.878 0 0 1 2.092-.566 2.828 2.828 0 0 1 .529.049c.173.033.348.074.529.123v2.854q-.369-.1-.726-.16a4.135 4.135 0 0 0-.7-.061 3.176 3.176 0 0 0-1.661.381 3.036 3.036 0 0 0-.959.874 2.909 2.909 0 0 0-.443.984 3.734 3.734 0 0 0-.11.738v6.323h-2.953z" transform="translate(-1317.078 -602.969)"/>
            <path id="패스_7541" class="cls-2" d="M1365 610.055h2.8v1.845h.049a3.994 3.994 0 0 1 1.267-1.489 3.842 3.842 0 0 1 2.35-.652 3.591 3.591 0 0 1 3.69 2.19 4.176 4.176 0 0 1 1.6-1.661 4.671 4.671 0 0 1 2.288-.529 4.55 4.55 0 0 1 1.993.393 3.492 3.492 0 0 1 1.316 1.083 4.459 4.459 0 0 1 .726 1.612 8.465 8.465 0 0 1 .222 1.98v7.037h-2.953v-6.693a5.48 5.48 0 0 0-.1-1.046 2.513 2.513 0 0 0-.344-.886 1.753 1.753 0 0 0-.664-.6 2.311 2.311 0 0 0-1.083-.222 2.439 2.439 0 0 0-1.169.258 2.292 2.292 0 0 0-.787.689 2.825 2.825 0 0 0-.443.984 4.666 4.666 0 0 0-.135 1.119v6.4h-2.953v-7.037a2.969 2.969 0 0 0-.467-1.759 1.778 1.778 0 0 0-1.551-.652 2.823 2.823 0 0 0-1.242.246 2.4 2.4 0 0 0-.837.664 2.646 2.646 0 0 0-.479.96 4.276 4.276 0 0 0-.148 1.132v6.447H1365z" transform="translate(-1329.027 -602.969)"/>
            <path id="패스_7542" class="cls-2" d="M1414.06 616.994a3 3 0 0 0 1.033 2.067 3.236 3.236 0 0 0 2.141.738 3.521 3.521 0 0 0 1.858-.455 5.153 5.153 0 0 0 1.316-1.144l2.116 1.6a5.993 5.993 0 0 1-2.313 1.821 6.821 6.821 0 0 1-2.682.541 7.079 7.079 0 0 1-2.51-.443 6.019 6.019 0 0 1-2.042-1.255 5.946 5.946 0 0 1-1.365-1.956 6.68 6.68 0 0 1 0-5.093 5.943 5.943 0 0 1 1.365-1.956 6.019 6.019 0 0 1 2.042-1.255 7.09 7.09 0 0 1 2.51-.443 5.739 5.739 0 0 1 2.251.431 4.827 4.827 0 0 1 1.747 1.242 5.726 5.726 0 0 1 1.132 2.005 8.494 8.494 0 0 1 .406 2.743v.812zm6.053-2.214a2.781 2.781 0 0 0-.812-2.054 3.045 3.045 0 0 0-2.19-.751 2.871 2.871 0 0 0-2.1.763 3.4 3.4 0 0 0-.947 2.042z" transform="translate(-1354.197 -602.969)"/>
            <path id="패스_7543" class="cls-2" d="M1451.925 613.436a3.021 3.021 0 0 0-.984-1.132 2.608 2.608 0 0 0-1.5-.418 3.8 3.8 0 0 0-.849.1 2.609 2.609 0 0 0-.775.308 1.7 1.7 0 0 0-.554.529 1.405 1.405 0 0 0-.209.787 1.3 1.3 0 0 0 .566 1.181 5.566 5.566 0 0 0 1.7.64l1.649.394a3.922 3.922 0 0 1 2.005 1.095 2.837 2.837 0 0 1 .8 2.055 3.227 3.227 0 0 1-.382 1.611 3.266 3.266 0 0 1-1.009 1.107 4.3 4.3 0 0 1-1.439.628 6.976 6.976 0 0 1-1.648.2 6.065 6.065 0 0 1-2.473-.5 4.56 4.56 0 0 1-1.956-1.735l1.4-.96a3.854 3.854 0 0 0 1.242 1.255 3.3 3.3 0 0 0 1.784.468 4.492 4.492 0 0 0 .984-.111 2.863 2.863 0 0 0 .874-.345 1.88 1.88 0 0 0 .615-.6 1.575 1.575 0 0 0 .234-.861 1.335 1.335 0 0 0-.64-1.242 5.6 5.6 0 0 0-1.55-.6l-1.574-.369q-.3-.074-.8-.246a3.748 3.748 0 0 1-.984-.517 3.093 3.093 0 0 1-.825-.9 2.537 2.537 0 0 1-.344-1.366 3.221 3.221 0 0 1 .357-1.55 3.052 3.052 0 0 1 .959-1.083 4.43 4.43 0 0 1 1.366-.627 5.927 5.927 0 0 1 1.575-.209 5.369 5.369 0 0 1 2.239.467 3.3 3.3 0 0 1 1.6 1.6z" transform="translate(-1372.624 -603.324)"/>
            <path id="패스_7544" class="cls-2" d="M1475.38 608.632h-3.322v6.791a3.676 3.676 0 0 0 .123 1.045 1.478 1.478 0 0 0 .345.628 1.186 1.186 0 0 0 .529.307 2.493 2.493 0 0 0 .677.086 3.2 3.2 0 0 0 .861-.123 3.955 3.955 0 0 0 .812-.32l.074 1.5a5.224 5.224 0 0 1-2.19.418 4.114 4.114 0 0 1-.972-.123 2.291 2.291 0 0 1-.923-.468 2.564 2.564 0 0 1-.688-.935 3.743 3.743 0 0 1-.271-1.55v-7.259H1468v-1.476h2.436v-3.248h1.624v3.248h3.322z" transform="translate(-1385.254 -599.774)"/>
            <path id="패스_7545" class="cls-2" d="M1496.884 615.159v-.3q0-2.977-2.953-2.977a5.085 5.085 0 0 0-3.518 1.353l-.985-1.157a6.5 6.5 0 0 1 4.872-1.673 5.3 5.3 0 0 1 1.612.246 3.645 3.645 0 0 1 1.341.751 3.732 3.732 0 0 1 .91 1.267 4.4 4.4 0 0 1 .344 1.821v5.143q0 .664.061 1.39t.135 1.193h-1.575c-.049-.279-.086-.582-.11-.911s-.037-.648-.037-.96h-.049a4.4 4.4 0 0 1-1.686 1.661 5.111 5.111 0 0 1-2.375.5 5.219 5.219 0 0 1-1.476-.209 3.749 3.749 0 0 1-1.267-.64 3.248 3.248 0 0 1-.886-1.058 3.089 3.089 0 0 1-.332-1.464 3.156 3.156 0 0 1 .726-2.2 4.443 4.443 0 0 1 1.821-1.193 8.968 8.968 0 0 1 2.337-.492q1.243-.1 2.276-.1zm-.837 1.329q-.616 0-1.538.061a8.912 8.912 0 0 0-1.772.3 3.9 3.9 0 0 0-1.452.726 1.651 1.651 0 0 0-.6 1.353 1.912 1.912 0 0 0 .234.972 1.94 1.94 0 0 0 .627.664 2.672 2.672 0 0 0 .873.369 4.326 4.326 0 0 0 .972.111 3.707 3.707 0 0 0 1.538-.3 3.128 3.128 0 0 0 1.747-1.981 4.848 4.848 0 0 0 .209-1.44v-.836z" transform="translate(-1396.67 -603.324)"/>
            <path id="패스_7546" class="cls-2" d="m1522.041 620.582 3.518-9.522h1.968l-5.757 14.517a5.945 5.945 0 0 1-1.317 2.116 3.145 3.145 0 0 1-2.3.787q-.369 0-.751-.025a2.977 2.977 0 0 1-.75-.148l.172-1.575a2.621 2.621 0 0 0 1.231.271 1.738 1.738 0 0 0 1.353-.541 4.724 4.724 0 0 0 .861-1.526l.837-2.214-4.724-11.663h2.042z" transform="translate(-1411.666 -603.678)"/>
        </g>
        <g id="그룹_3694" transform="translate(1291.505 305.014)">
            <path id="패스_7547" d="M1349.7 305.055a49.359 49.359 0 0 0-19.577 95.43 18.319 18.319 0 0 0 8.539-10.631 29.25 29.25 0 0 0 .857-14.441 35.52 35.52 0 0 1-6.158-67 16.122 16.122 0 0 0 31.391 1.273c.136-.494.247-1 .335-1.509a49.235 49.235 0 0 0-15.387-3.122z" transform="translate(-1298.38 -305.014)" style="fill:url(#radial-gradient)"/>
            <path id="패스_7548" d="M1462.786 410.256c-8.986-2.446-29.193-4.023-39.52 23.985-2.364 6.41-1.234 21.657-4.453 25.975a49.329 49.329 0 0 0 43.736-44.407c.083-.88.145-1.766.182-2.659a21.464 21.464 0 0 0 .032-2.207c-.001-.021.024-.667.023-.687z" transform="translate(-1364.123 -361.794)" style="fill:#e5e5e5"/>
            <path id="패스_7549" d="M1404.143 407.05c-4.718-2.1-50.737-18.517-63.248 36.656a51.814 51.814 0 0 1-3.668 10.353c-9.6 20.839-25.842 21.073-25.842 21.073s55.042 13.413 64.235-33.8c6.926-35.577 19.834-35.225 28.523-34.278z" transform="translate(-1305.479 -358.588)" style="fill:url(#radial-gradient-2)"/>
            <path id="패스_7550" d="M1492.994 503.224a5.627 5.627 0 1 0 1.109 3.587 5.611 5.611 0 0 0-1.109-3.587z" transform="translate(-1399.084 -411.976)" style="fill:#8c00ff"/>
        </g>
    </g>
</svg>
