<svg xmlns="http://www.w3.org/2000/svg" width="231" height="231">
    <defs>
        <radialGradient id="radial-gradient" cx=".066" cy="1.196" r="1.475" gradientTransform="matrix(1.431 0 0 1 -.216 0)" gradientUnits="objectBoundingBox">
            <stop offset="0" stop-color="#095cd4"/>
            <stop offset=".649" stop-color="#7400d4"/>
        </radialGradient>
        <radialGradient id="radial-gradient-2" cx=".099" cy="1.178" r="1.786" gradientTransform="matrix(.795 0 0 1 .103 0)" gradientUnits="objectBoundingBox">
            <stop offset="0" stop-color="#2d87ff"/>
            <stop offset=".649" stop-color="#8c00ff"/>
        </radialGradient>
    </defs>
    <g id="ic_logo" transform="translate(-1224.786 -266.414)">
        <path id="사각형_4597" transform="translate(1224.786 266.414)" style="fill:none" d="M0 0h231v231H0z"/>
        <g id="그룹_3694" transform="translate(1291.505 305.014)">
            <path id="패스_7547" d="M1349.7 305.055a49.359 49.359 0 0 0-19.577 95.43 18.319 18.319 0 0 0 8.539-10.631 29.25 29.25 0 0 0 .857-14.441 35.52 35.52 0 0 1-6.158-67 16.122 16.122 0 0 0 31.391 1.273c.136-.494.247-1 .335-1.509a49.235 49.235 0 0 0-15.387-3.122z" transform="translate(-1298.38 -305.014)" style="fill:url(#radial-gradient)"/>
            <path id="패스_7548" d="M1462.786 410.256c-8.986-2.446-29.193-4.023-39.52 23.985-2.364 6.41-1.234 21.657-4.453 25.975a49.329 49.329 0 0 0 43.736-44.407c.083-.88.145-1.766.182-2.659a21.464 21.464 0 0 0 .032-2.207c-.001-.021.024-.667.023-.687z" transform="translate(-1364.123 -361.794)" style="fill:#e5e5e5"/>
            <path id="패스_7549" d="M1404.143 407.05c-4.718-2.1-50.737-18.517-63.248 36.656a51.814 51.814 0 0 1-3.668 10.353c-9.6 20.839-25.842 21.073-25.842 21.073s55.042 13.413 64.235-33.8c6.926-35.577 19.834-35.225 28.523-34.278z" transform="translate(-1305.479 -358.588)" style="fill:url(#radial-gradient-2)"/>
            <path id="패스_7550" d="M1492.994 503.224a5.627 5.627 0 1 0 1.109 3.587 5.611 5.611 0 0 0-1.109-3.587z" transform="translate(-1399.084 -411.976)" style="fill:#8c00ff"/>
        </g>
    </g>
</svg>
